<svg width="40" height="40" viewBox="0 0 40 40" fill="none" xmlns="http://www.w3.org/2000/svg">
<g clip-path="url(#clip0_560_22)">
<path d="M23.05 0.025098L0.65 4.2751C0.271875 4.34697 0 4.69072 0 5.0751V34.9251C0 35.3095 0.271875 35.6532 0.65 35.7251L23.05 39.9751C23.1 39.9845 23.15 40.0001 23.2 40.0001C23.3844 40.0001 23.5563 39.9438 23.7 39.8251C23.8844 39.672 24 39.4376 24 39.2001V0.800098C24 0.562598 23.8844 0.328223 23.7 0.175098C23.5156 0.021973 23.2844 -0.018652 23.05 0.025098ZM25.6 4.8001V10.4001H27.2V12.0001H25.6V16.0001H27.2V17.6001H25.6V21.6001H27.2V23.2001H25.6V28.0001H27.2V29.6001H25.6V35.2001H37.6C38.4813 35.2001 39.2 34.4813 39.2 33.6001V6.4001C39.2 5.51885 38.4813 4.8001 37.6 4.8001H25.6ZM28.8 10.4001H35.2V12.0001H28.8V10.4001ZM5.35 12.5501H9.45L11.6 17.0251C11.7688 17.3782 11.9188 17.8126 12.05 18.3001H12.075C12.1594 18.0095 12.3219 17.5532 12.55 16.9751L14.925 12.5501H18.675L14.2 19.9501L18.8 27.5001H14.825L12.225 22.6251C12.1281 22.4438 12.0281 22.1095 11.925 21.6251H11.9C11.85 21.8532 11.7313 22.2095 11.55 22.6751L8.95 27.5001H4.95L9.725 20.0251L5.35 12.5501ZM28.8 16.0001H35.2V17.6001H28.8V16.0001ZM28.8 21.6001H35.2V23.2001H28.8V21.6001ZM28.8 28.0001H35.2V29.6001H28.8V28.0001Z" fill="white"/>
</g>
<defs>
<clipPath id="clip0_560_22">
<rect width="40" height="40" fill="white"/>
</clipPath>
</defs>
</svg>
