<svg width="40" height="40" viewBox="0 0 40 40" fill="none" xmlns="http://www.w3.org/2000/svg">
<path d="M20 3.33325C10.795 3.33325 3.33333 10.7949 3.33333 19.9999C3.33333 29.2049 10.795 36.6666 20 36.6666C29.205 36.6666 36.6667 29.2049 36.6667 19.9999C36.6667 10.7949 29.205 3.33325 20 3.33325ZM26.6667 21.6666H21.6667V26.6666C21.6667 27.5866 20.92 28.3333 20 28.3333C19.08 28.3333 18.3333 27.5866 18.3333 26.6666V21.6666H13.3333C12.4133 21.6666 11.6667 20.9199 11.6667 19.9999C11.6667 19.0799 12.4133 18.3333 13.3333 18.3333H18.3333V13.3333C18.3333 12.4133 19.08 11.6666 20 11.6666C20.92 11.6666 21.6667 12.4133 21.6667 13.3333V18.3333H26.6667C27.5867 18.3333 28.3333 19.0799 28.3333 19.9999C28.3333 20.9199 27.5867 21.6666 26.6667 21.6666Z" fill="white"/>
</svg>
