<svg width="108" height="64" viewBox="0 0 108 64" fill="none" xmlns="http://www.w3.org/2000/svg">
<mask id="mask0_432_53" style="mask-type:luminance" maskUnits="userSpaceOnUse" x="0" y="0" width="108" height="64">
<path d="M0.316653 64L107.091 63.4673L106.774 3.91495e-05L-2.16802e-05 0.532796L0.316653 64Z" fill="white"/>
</mask>
<g mask="url(#mask0_432_53)">
<path d="M45.559 63.7748L64.8425 0.20977L84.76 0.11039L74.6866 33.3054C74.6793 33.3161 74.6761 33.329 74.6774 33.3418L65.4765 63.6754L45.559 63.7748Z" fill="url(#paint0_linear_432_53)"/>
<path d="M45.559 63.7748L64.8425 0.20977L84.76 0.11039L74.6866 33.3054C74.6793 33.3161 74.6761 33.329 74.6774 33.3418L65.4765 63.6754L45.559 63.7748Z" fill="url(#paint1_linear_432_53)"/>
<path d="M68.0258 63.7748L87.3093 0.20977L107.227 0.11039L97.1534 33.3054C97.1461 33.3161 97.1429 33.329 97.1442 33.3418L87.9433 63.6754L68.0258 63.7748Z" fill="url(#paint2_linear_432_53)"/>
<path d="M68.0258 63.7748L87.3093 0.20977L107.227 0.11039L97.1534 33.3054C97.1461 33.3161 97.1429 33.329 97.1442 33.3418L87.9433 63.6754L68.0258 63.7748Z" fill="url(#paint3_linear_432_53)"/>
<path d="M22.692 63.8883L41.9755 0.323296L61.893 0.223916L52.0217 32.7636L42.6095 63.789L22.692 63.8883Z" fill="url(#paint4_linear_432_53)"/>
<path d="M2.54275 0.520007L22.4509 0.420673L26.0454 11.8459L26.0454 11.8551L30.9488 27.4552L21.1509 59.7426L2.54275 0.520007Z" fill="url(#paint5_linear_432_53)"/>
<g style="mix-blend-mode:screen" opacity="0.4">
<path d="M48.0793 61.8951L82.2403 1.98927L64.0861 61.8152L48.0793 61.8951Z" fill="white"/>
</g>
<g style="mix-blend-mode:screen" opacity="0.4">
<path d="M70.5456 61.8951L104.707 1.98927L86.5524 61.8152L70.5456 61.8951Z" fill="white"/>
</g>
<g style="mix-blend-mode:screen" opacity="0.4">
<path d="M25.2122 62.0096L59.3731 2.10377L41.219 61.9297L25.2122 62.0096Z" fill="white"/>
</g>
<g style="mix-blend-mode:multiply" opacity="0.3">
<path d="M21.1509 59.7426L26.0455 11.8505L30.9507 27.4552L21.1509 59.7426Z" fill="black"/>
</g>
<g style="mix-blend-mode:multiply" opacity="0.3">
<path d="M22.692 63.8883L41.9755 0.323296L61.893 0.223916C58.5713 0.436496 55.2584 0.537029 51.9364 0.702942L46.9625 0.877102L42.5109 1.00292C41.062 6.17166 39.5664 11.331 38.024 16.4809L35.6369 24.4264L33.1938 32.3629C31.5307 37.6447 29.849 42.9173 28.1112 48.1808C27.2282 50.7986 26.364 53.435 25.453 56.0436C24.542 58.6523 23.6498 61.2897 22.692 63.8883Z" fill="black"/>
</g>
<g style="mix-blend-mode:multiply" opacity="0.3">
<path d="M-61.2801 -2.87253L-4.56226 -2.87345L0.456271 13.3761C-0.540841 10.7147 -1.44423 8.03267 -2.40327 5.3595L-3.77856 1.33855L-4.98484 -2.26751C-9.56729 -2.17013 -14.1536 -2.11324 -18.7438 -2.09687L-25.8277 -2.07771L-32.918 -2.1066C-37.6459 -2.15613 -42.3709 -2.22325 -47.1024 -2.3384C-49.4603 -2.41092 -51.8287 -2.46351 -54.1859 -2.56123C-56.5432 -2.65896 -58.9194 -2.73415 -61.2801 -2.87253Z" fill="black"/>
</g>
<g style="mix-blend-mode:multiply" opacity="0.3">
<path d="M45.559 63.7748L64.8425 0.20977L84.76 0.11039C81.4383 0.322971 78.1253 0.423503 74.8034 0.589417L69.8294 0.763577L65.3779 0.889391C63.929 6.05813 62.4333 11.2175 60.891 16.3674L58.5038 24.3129L56.0607 32.2493C54.3977 37.5312 52.7159 42.8037 50.9781 48.0672C50.0951 50.6851 49.2309 53.3215 48.3199 55.9301C47.4089 58.5387 46.5167 61.1762 45.559 63.7748Z" fill="black"/>
</g>
<g style="mix-blend-mode:multiply" opacity="0.3">
<path d="M68.0258 63.7748L87.3093 0.20977L107.227 0.11039C103.905 0.322971 100.592 0.423503 97.2702 0.589417L92.2962 0.763577L87.8447 0.889391C86.3957 6.05813 84.9001 11.2175 83.3577 16.3674L80.9706 24.3129L78.5275 32.2493C76.8645 37.5312 75.1827 42.8037 73.4449 48.0672C72.5619 50.6851 71.6977 53.3215 70.7867 55.9301C69.8757 58.5387 68.9835 61.1762 68.0258 63.7748Z" fill="black"/>
</g>
<g style="mix-blend-mode:multiply" opacity="0.3">
<path d="M51.0095 63.747C53.4163 63.4839 55.8235 63.3123 58.2402 63.1789C59.4439 63.1076 60.6476 63.0362 61.8514 62.9929C62.8499 62.9506 63.8484 62.9083 64.847 62.8846C65.1495 61.7911 65.4521 60.7059 65.764 59.6133L66.8931 55.8079C67.2601 54.547 67.6738 53.2839 68.0596 52.022C68.4453 50.76 68.8497 49.4979 69.2634 48.2451C69.6772 46.9924 70.0815 45.721 70.5233 44.4774C70.9651 43.2338 71.3789 41.9717 71.83 40.7281C72.723 38.2409 73.6534 35.7815 74.6772 33.3403L65.4763 63.6739L51.0095 63.747Z" fill="black"/>
</g>
<g style="mix-blend-mode:multiply" opacity="0.3">
<path d="M73.4755 63.747C75.8823 63.4839 78.2895 63.3123 80.7063 63.1789C81.91 63.1076 83.1137 63.0362 84.3175 62.9929C85.316 62.9506 86.3145 62.9083 87.3131 62.8846C87.6156 61.7911 87.9182 60.7059 88.2301 59.6133L89.3591 55.8079C89.7262 54.547 90.1399 53.2839 90.5256 52.022C90.9113 50.76 91.3157 49.4979 91.7295 48.2451C92.1433 46.9924 92.5476 45.721 92.9894 44.4774C93.4312 43.2338 93.8449 41.9717 94.2961 40.7281C95.189 38.2409 96.1195 35.7815 97.1433 33.3403L87.9423 63.6739L73.4755 63.747Z" fill="black"/>
</g>
<g style="mix-blend-mode:multiply" opacity="0.3">
<path d="M27.8254 63.8627C30.2881 63.5993 32.7514 63.4275 35.2148 63.2938C36.4464 63.2143 37.6782 63.1521 38.91 63.1074C39.9365 63.0649 40.9536 63.0225 41.9802 62.9903L42.9249 59.6526L44.0722 55.764L45.2663 51.8949C45.6611 50.5946 46.0747 49.3148 46.4977 48.0339C46.9207 46.7531 47.3342 45.463 47.7852 44.1821C48.2362 42.9011 48.6498 41.6194 49.1195 40.357C50.0215 37.8044 50.9795 35.2702 52.0217 32.7636L42.6095 63.7889L27.8254 63.8627Z" fill="black"/>
</g>
<g style="mix-blend-mode:multiply" opacity="0.3">
<path d="M12.5034 0.91028C9.50788 1.02696 6.52161 1.1267 3.52591 1.20605C4.25534 3.35849 4.9661 5.51111 5.67691 7.67288C6.49184 10.1237 7.28814 12.584 8.06582 15.0541C9.64909 19.9735 11.1765 24.922 12.6945 29.8613L14.925 37.2994L17.0903 44.7556C17.7934 47.2441 18.5059 49.7316 19.1624 52.2298C19.8376 54.7372 20.5313 57.2268 21.1506 59.7428L2.54245 0.520272L22.4506 0.420939C19.1383 0.6485 15.8161 0.752719 12.5034 0.91028Z" fill="black"/>
</g>
</g>
<defs>
<linearGradient id="paint0_linear_432_53" x1="65.3143" y1="62.9781" x2="64.997" y2="-0.616093" gradientUnits="userSpaceOnUse">
<stop stop-color="#00F3FF"/>
<stop offset="0.238" stop-color="#00EFFC"/>
<stop offset="0.44" stop-color="#00E5F4"/>
<stop offset="0.629" stop-color="#00D3E7"/>
<stop offset="0.81" stop-color="#00BAD4"/>
<stop offset="0.983" stop-color="#009BBC"/>
<stop offset="1" stop-color="#0098BA"/>
</linearGradient>
<linearGradient id="paint1_linear_432_53" x1="65.3143" y1="62.9781" x2="64.997" y2="-0.616093" gradientUnits="userSpaceOnUse">
<stop stop-color="#00FFD1"/>
<stop offset="0.238" stop-color="#00FCCF"/>
<stop offset="0.44" stop-color="#00F4B9"/>
<stop offset="0.629" stop-color="#00E7BD"/>
<stop offset="0.81" stop-color="#00D4BB"/>
<stop offset="0.983" stop-color="#00BC9A"/>
<stop offset="1" stop-color="#00BAA4"/>
</linearGradient>
<linearGradient id="paint2_linear_432_53" x1="87.7811" y1="62.9781" x2="87.4638" y2="-0.616093" gradientUnits="userSpaceOnUse">
<stop stop-color="#00F3FF"/>
<stop offset="0.238" stop-color="#00EFFC"/>
<stop offset="0.44" stop-color="#00E5F4"/>
<stop offset="0.629" stop-color="#00D3E7"/>
<stop offset="0.81" stop-color="#00BAD4"/>
<stop offset="0.983" stop-color="#009BBC"/>
<stop offset="1" stop-color="#0098BA"/>
</linearGradient>
<linearGradient id="paint3_linear_432_53" x1="87.7811" y1="62.9781" x2="87.4638" y2="-0.616093" gradientUnits="userSpaceOnUse">
<stop stop-color="#00FFD1"/>
<stop offset="0.238" stop-color="#00FCCF"/>
<stop offset="0.44" stop-color="#00F4B9"/>
<stop offset="0.629" stop-color="#00E7BD"/>
<stop offset="0.81" stop-color="#00D4BB"/>
<stop offset="0.983" stop-color="#00BC9A"/>
<stop offset="1" stop-color="#00BAA4"/>
</linearGradient>
<linearGradient id="paint4_linear_432_53" x1="42.4474" y1="63.0916" x2="42.1301" y2="-0.502568" gradientUnits="userSpaceOnUse">
<stop stop-color="#00FFD1"/>
<stop offset="0.238" stop-color="#00FCCF"/>
<stop offset="0.44" stop-color="#00F4B9"/>
<stop offset="0.629" stop-color="#00E7BD"/>
<stop offset="0.81" stop-color="#00D4BB"/>
<stop offset="0.983" stop-color="#00BC9A"/>
<stop offset="1" stop-color="#00BAA4"/>
</linearGradient>
<linearGradient id="paint5_linear_432_53" x1="9.97418" y1="-0.288125" x2="39.9302" y2="17.2499" gradientUnits="userSpaceOnUse">
<stop stop-color="#45DCC3"/>
<stop offset="0.247" stop-color="#12A990"/>
<stop offset="0.75" stop-color="#0A584B"/>
<stop offset="1" stop-color="#073F36"/>
</linearGradient>
</defs>
</svg>
